<?xml version="1.0" encoding="utf-8"?>
<svg xmlns="http://www.w3.org/2000/svg" fill="none" height="138" viewBox="0 0 92 138" width="92">
<path d="M17.8392 41.1535C24.4416 41.1535 29.7939 35.8012 29.7939 29.1988C29.7939 22.5964 24.4416 17.2441 17.8392 17.2441C11.2368 17.2441 5.88452 22.5964 5.88452 29.1988C5.88452 35.8012 11.2368 41.1535 17.8392 41.1535Z" fill="#C8E56E"/>
<path d="M90.0558 23.0942C89.054 23.9397 87.7575 24.3528 86.4512 24.2428C85.1449 24.1329 83.9357 23.5088 83.0893 22.5078L80.2066 19.0952C78.6169 28.0117 74.4554 40.998 63.6311 52.2037C55.7603 60.3572 42.3218 65.1546 36.3657 68.2281C35.5815 68.6054 34.8341 69.0548 34.133 69.5705C30.9536 72.0858 26.7285 77.9148 25.5627 85.5666C25.3357 87.0273 25.2317 88.5044 25.2518 89.9825C25.2942 93.5788 25.3578 98.242 28.297 102.531C31.1585 106.699 34.9667 107.922 36.8108 113.249C37.3416 115.051 37.6222 116.917 37.6445 118.795C37.6445 123.787 35.6615 128.575 32.1316 132.105C28.6018 135.635 23.8142 137.618 18.8223 137.618C13.8303 137.618 9.04278 135.635 5.51292 132.105C1.98305 128.575 0 123.787 0 118.795C0.0143385 116.902 0.297425 115.02 0.840785 113.207C2.77671 107.759 6.86759 106.657 9.89158 102.22C12.7178 98.0512 12.8308 93.5859 12.9085 90.251C13.1487 79.9496 5.33439 72.5239 2.21148 68.8004C1.23592 67.8595 0.586526 66.6314 0.358035 65.2955C0.129544 63.9595 0.333907 62.5854 0.941314 61.3738C1.54872 60.1621 2.52739 59.1762 3.73455 58.56C4.94172 57.9437 6.31422 57.7292 7.65185 57.9479C10.5487 58.4213 36.4858 62.0105 54.4814 43.372C61.2792 36.1901 65.8341 27.181 67.5878 17.4489L63.6947 20.7344C63.2041 21.1917 62.6256 21.5445 61.9944 21.7713C61.3631 21.9981 60.6924 22.0941 60.0229 22.0535C59.3534 22.0129 58.6991 21.8365 58.0999 21.5351C57.5007 21.2338 56.9691 20.8136 56.5373 20.3003C56.1056 19.787 55.7827 19.1913 55.5884 18.5493C55.3942 17.9073 55.3325 17.2325 55.4072 16.566C55.4819 15.8994 55.6914 15.255 56.023 14.6719C56.3545 14.0889 56.8012 13.5794 57.3359 13.1744L71.6009 1.16315C72.6037 0.318515 73.9007 -0.0934254 75.207 0.0178635C76.5134 0.129152 77.722 0.754564 78.5674 1.75664C78.6999 1.90966 78.8204 2.07264 78.9278 2.24416L90.6493 16.1277C91.4939 17.1304 91.9059 18.4275 91.7946 19.7338C91.6833 21.0401 91.0579 22.2488 90.0558 23.0942Z" fill="#41B47D"/>
<path d="M86.3617 132.128C82.832 135.657 78.0452 137.639 73.054 137.639C68.0628 137.639 63.276 135.657 59.7463 132.128C58.4842 130.817 57.3922 129.352 56.4962 127.768C54.7369 124.483 54.7086 121.94 54.2423 119.29C53.3309 114.118 51.0841 110.571 47.8834 105.519C45.6867 102.055 43.1159 98.842 40.2175 95.9388C35.9353 91.6982 30.9876 88.1873 25.5709 85.5456C26.7367 77.8937 30.9618 72.0647 34.1412 69.5495C34.8422 69.0338 35.5897 68.5844 36.3739 68.207C39.713 74.9687 44.1677 81.1193 49.5509 86.4005C52.2526 89.0645 55.219 91.4461 58.4039 93.5083C62.6431 96.2002 67.0378 98.9769 73.1564 99.9731C75.9826 100.439 78.5332 100.404 81.8822 102.156C83.5128 103.071 85.0204 104.189 86.3688 105.484C88.1207 107.232 89.5105 109.309 90.4585 111.595C91.4066 113.882 91.8942 116.332 91.8936 118.807C91.8929 121.282 91.404 123.733 90.4547 126.019C89.5055 128.305 88.1146 130.381 86.3617 132.128Z" fill="#C8E56E"/>
</svg>